<svg aria-hidden="true" style="position: absolute; width: 0; height: 0; overflow: hidden;" version="1.1" xmlns="http://www.w3.org/2000/svg" xmlns:xlink="http://www.w3.org/1999/xlink">
<defs>
<symbol id="icons-mobile-menu" viewBox="0 0 47 32">
<path   d="M0.892 0.115c-0.236 0.106-0.436 0.252-0.599 0.432l-0.001 0.001-0.291 0.324v2.483l0.332 0.332c0.636 0.636-1.54 0.583 23.293 0.56l22.106-0.019 0.407-0.225 0.407-0.227v-3.375l-0.806-0.401-22.269 0.003c-18.902 0.003-22.316 0.020-22.579 0.112zM1.068 13.575c-0.359 0.109-0.742 0.384-0.909 0.653-0.141 0.23-0.159 0.384-0.159 1.412 0 1.004 0.020 1.187 0.151 1.401 0.217 0.355 0.735 0.628 1.364 0.72 0.742 0.108 43.081 0.108 43.821 0 0.295-0.042 0.679-0.156 0.854-0.252l0.316-0.175v-3.408l-0.698-0.39-22.263-0.013c-12.246-0.007-22.361 0.016-22.477 0.051zM1.219 27.081c-0.394 0.078-0.73 0.283-0.972 0.571l-0.002 0.003-0.244 0.279v2.497l0.332 0.332c0.636 0.634-1.54 0.582 23.293 0.56 20.793-0.019 22.122-0.028 22.378-0.154 0.573-0.285 0.543-0.17 0.543-2.022v-1.673l-0.892-0.438-22.071-0.012c-12.748-0.007-22.193 0.016-22.364 0.057z"></path>
</symbol>

<symbol id="icons-h" viewBox="0 0 28 32">
<path fill="#000" style="fill: var(--color1, #000)" d="M9.817 13.617h7.488c2.151 0 3.946 0.918 5.063 2.468s1.15 4.138 0.499 6.162l-0.832 2.584c-0.347 1.079-1.974 6.182-2.291 7.168h-4.085c0 0 0.062 0.055 3.475-10.553 0.301-0.936 0.473-2.456 0-3.113s-1.27-1.046-2.325-1.046h-6.121c-1.202 0-2.267 0.782-2.639 1.936l1.767-5.607z"></path>
<path fill="#f0145a" style="fill: var(--color2, #f0145a)" d="M3.979 32h-3.994c3.399-10.673 6.837-21.333 10.255-32h3.988c-0.017 0.053-0.034 0.107-0.051 0.16-5.532 17.022-3.645 11.274-10.199 31.84z"></path>
</symbol>

<symbol id="icons-logo" viewBox="0 0 68 32">
<path fill="#f0145a" style="fill: var(--color1, #f0145a)" d="M2.6 0h-2.6v18.78h2.6v-6.967c0-1.179 0.293-2.108 0.88-2.763s1.389-0.995 2.384-0.995c0.854 0 1.568 0.314 2.141 0.917 0.574 0.616 0.867 1.388 0.867 2.318v7.504h2.613v-7.504c0-1.729-0.472-3.091-1.415-4.112s-2.18-1.532-3.684-1.532c-0.433 0-0.867 0.052-1.287 0.17-0.433 0.118-0.778 0.249-1.058 0.393s-0.548 0.301-0.79 0.485c-0.242 0.183-0.408 0.314-0.484 0.393s-0.14 0.131-0.166 0.17v-7.255z"></path>
<path fill="#FFF" style="fill: #FFF" d="M17.297 0h-2.681v18.764h2.681v-18.764z"></path>
<path fill="#FFF" style="fill: #FFF" d="M33.108 13.268l0.134-1.34c0-1.796-0.59-3.297-1.796-4.503s-2.707-1.796-4.503-1.796-3.351 0.643-4.637 1.93c-1.287 1.287-1.93 2.815-1.93 4.637 0 1.876 0.67 3.485 1.984 4.825s2.895 2.010 4.718 2.010c0.697 0 1.34-0.107 1.984-0.295 0.643-0.214 1.179-0.429 1.555-0.643 0.402-0.241 0.804-0.509 1.153-0.804s0.59-0.509 0.697-0.643c0.107-0.134 0.188-0.214 0.241-0.295l-1.742-1.742-0.402 0.509c-0.268 0.322-0.724 0.643-1.367 0.992-0.67 0.348-1.367 0.509-2.118 0.509-1.045 0-1.93-0.322-2.681-0.992s-1.206-1.447-1.34-2.359h10.052zM26.942 7.907c0.992 0 1.796 0.295 2.466 0.858 0.643 0.59 1.045 1.313 1.206 2.225h-7.452c0.241-0.911 0.67-1.635 1.34-2.225 0.643-0.563 1.474-0.858 2.439-0.858z"></path>
<path fill="#FFF" style="fill: #FFF" d="M45.609 17.986c0 1.18-0.349 2.144-1.072 2.895-0.697 0.724-1.582 1.099-2.681 1.099-0.483 0-0.965-0.080-1.421-0.214s-0.804-0.295-1.099-0.483c-0.295-0.188-0.563-0.375-0.831-0.616-0.241-0.241-0.402-0.402-0.483-0.483s-0.134-0.161-0.188-0.214l-1.742 1.742 0.214 0.268c0.134 0.188 0.375 0.429 0.697 0.697 0.322 0.241 0.697 0.509 1.126 0.777 0.429 0.241 0.965 0.456 1.635 0.643s1.367 0.295 2.091 0.295c1.823 0 3.324-0.616 4.584-1.85 1.233-1.26 1.85-2.761 1.85-4.584v-12.063h-2.681v1.34l-0.456-0.402c-0.295-0.268-0.751-0.536-1.394-0.804s-1.34-0.402-2.037-0.402c-1.635 0-3.029 0.617-4.235 1.876s-1.796 2.761-1.796 4.557 0.59 3.297 1.796 4.557c1.206 1.26 2.6 1.876 4.235 1.876 0.456 0 0.885-0.054 1.34-0.161 0.429-0.134 0.777-0.268 1.072-0.402s0.563-0.295 0.804-0.482c0.241-0.188 0.429-0.322 0.483-0.375l0.188-0.188v1.099zM38.372 12.062c0-1.126 0.349-2.064 1.072-2.841s1.582-1.18 2.547-1.18 1.823 0.402 2.547 1.18c0.697 0.777 1.072 1.716 1.072 2.841s-0.375 2.064-1.072 2.841c-0.724 0.777-1.582 1.179-2.547 1.179s-1.823-0.402-2.547-1.179c-0.724-0.777-1.072-1.716-1.072-2.841z"></path>
<path fill="#FFF" style="fill: #FFF" d="M62.281 18.764v-8.31c0-1.367-0.509-2.52-1.501-3.431-0.992-0.938-2.279-1.394-3.86-1.394-0.616 0-1.233 0.080-1.822 0.241-0.59 0.188-1.072 0.375-1.421 0.59s-0.697 0.456-1.018 0.751c-0.322 0.268-0.509 0.456-0.617 0.563-0.080 0.107-0.161 0.188-0.214 0.268l1.742 1.742 0.348-0.456c0.215-0.295 0.59-0.563 1.153-0.858s1.179-0.429 1.849-0.429c0.777 0 1.421 0.241 1.93 0.697s0.751 1.045 0.751 1.716l-4.691 0.804c-1.153 0.188-2.091 0.643-2.734 1.367-0.67 0.724-1.019 1.608-1.019 2.654 0 0.992 0.429 1.85 1.287 2.6 0.884 0.777 1.957 1.153 3.27 1.153 0.456 0 0.884-0.054 1.314-0.188 0.455-0.107 0.804-0.241 1.099-0.375s0.563-0.295 0.804-0.483c0.241-0.188 0.402-0.322 0.509-0.375 0.080-0.080 0.134-0.161 0.161-0.188v1.34h2.681zM56.116 16.619c-0.697 0-1.26-0.161-1.662-0.482-0.429-0.322-0.616-0.697-0.616-1.126 0-0.456 0.134-0.858 0.429-1.153s0.697-0.509 1.179-0.59l4.155-0.67v0.268c0 1.206-0.295 2.118-0.911 2.788-0.616 0.643-1.475 0.965-2.574 0.965z"></path>
<path fill="#FFF" style="fill: #FFF" d="M68.197 0h-2.681v18.764h2.681v-18.764z"></path>
<path fill="#FFF" style="fill: #FFF" d="M0 27.865h0.839v2.941h1.818v0.684h-2.656v-3.625z"></path>
<path fill="#FFF" style="fill: #FFF" d="M8.132 30.714h-1.683l-0.321 0.777h-0.86l1.616-3.625h0.829l1.621 3.625h-0.88l-0.321-0.777zM7.868 30.077l-0.575-1.388-0.575 1.388h1.15z"></path>
<path fill="#FFF" style="fill: #FFF" d="M17.58 27.865l-1.186 3.625h-0.901l-0.797-2.454-0.823 2.454h-0.896l-1.191-3.625h0.87l0.818 2.548 0.854-2.548h0.777l0.829 2.568 0.844-2.568h0.803z"></path>
<path fill="#FFF" style="fill: #FFF" d="M26.504 31.552c-0.369 0-0.704-0.079-1.005-0.238-0.297-0.162-0.532-0.385-0.704-0.668-0.169-0.287-0.254-0.609-0.254-0.968s0.085-0.68 0.254-0.963c0.173-0.287 0.407-0.509 0.704-0.668 0.3-0.162 0.637-0.243 1.010-0.243 0.314 0 0.597 0.055 0.849 0.166 0.255 0.11 0.469 0.269 0.642 0.476l-0.539 0.497c-0.245-0.283-0.549-0.425-0.911-0.425-0.224 0-0.425 0.050-0.601 0.15-0.176 0.097-0.314 0.233-0.414 0.409-0.097 0.176-0.145 0.376-0.145 0.601s0.048 0.425 0.145 0.601c0.1 0.176 0.238 0.314 0.414 0.414 0.176 0.097 0.376 0.145 0.601 0.145 0.363 0 0.666-0.143 0.911-0.43l0.539 0.497c-0.173 0.211-0.387 0.371-0.642 0.482s-0.54 0.166-0.854 0.166z"></path>
<path fill="#FFF" style="fill: #FFF" d="M32.836 31.552c-0.376 0-0.716-0.081-1.020-0.243-0.3-0.162-0.537-0.385-0.709-0.668-0.169-0.287-0.254-0.608-0.254-0.963s0.085-0.675 0.254-0.958c0.173-0.287 0.409-0.511 0.709-0.673 0.304-0.162 0.644-0.243 1.020-0.243s0.715 0.081 1.015 0.243c0.3 0.162 0.537 0.387 0.709 0.673 0.173 0.283 0.259 0.602 0.259 0.958s-0.086 0.677-0.259 0.963c-0.173 0.283-0.409 0.506-0.709 0.668s-0.639 0.243-1.015 0.243zM32.836 30.838c0.214 0 0.407-0.048 0.58-0.145 0.173-0.1 0.307-0.238 0.404-0.414 0.1-0.176 0.15-0.376 0.15-0.601s-0.050-0.425-0.15-0.601c-0.097-0.176-0.231-0.312-0.404-0.409-0.173-0.1-0.366-0.15-0.58-0.15s-0.407 0.050-0.58 0.15c-0.173 0.097-0.309 0.233-0.409 0.409-0.097 0.176-0.145 0.376-0.145 0.601s0.048 0.425 0.145 0.601c0.1 0.176 0.237 0.314 0.409 0.414 0.173 0.097 0.366 0.145 0.58 0.145z"></path>
<path fill="#FFF" style="fill: #FFF" d="M41.337 31.49l-0.005-2.175-1.067 1.792h-0.378l-1.062-1.745v2.128h-0.787v-3.625h0.694l1.357 2.253 1.336-2.253h0.689l0.010 3.625h-0.787z"></path>
<path fill="#FFF" style="fill: #FFF" d="M47.143 27.865c0.321 0 0.599 0.053 0.834 0.161 0.238 0.107 0.421 0.259 0.549 0.456s0.192 0.43 0.192 0.699c0 0.266-0.064 0.499-0.192 0.699-0.128 0.197-0.311 0.349-0.549 0.456-0.235 0.104-0.513 0.155-0.834 0.155h-0.73v0.999h-0.839v-3.625h1.569zM47.096 29.807c0.252 0 0.444-0.053 0.575-0.161 0.131-0.11 0.197-0.266 0.197-0.466 0-0.204-0.066-0.359-0.197-0.466-0.131-0.11-0.323-0.166-0.575-0.166h-0.684v1.258h0.684z"></path>
<path fill="#FFF" style="fill: #FFF" d="M54.11 30.714h-1.683l-0.321 0.777h-0.86l1.616-3.625h0.828l1.621 3.625h-0.88l-0.321-0.777zM53.846 30.077l-0.574-1.388-0.575 1.388h1.149z"></path>
<path fill="#FFF" style="fill: #FFF" d="M61.602 27.865v3.625h-0.689l-1.807-2.201v2.201h-0.829v-3.625h0.694l1.802 2.201v-2.201h0.829z"></path>
<path fill="#FFF" style="fill: #FFF" d="M66.788 30.206v1.284h-0.839v-1.295l-1.403-2.33h0.891l0.968 1.61 0.968-1.61h0.824l-1.409 2.341z"></path>
</symbol>

<symbol id="icons-slash" viewBox="0 0 15 32">
<path fill="#f0145a" style="fill: var(--color1, #f0145a)" d="M10.742 0h3.966l-10.332 32h-3.966l10.332-32z"></path>
</symbol>

<symbol id="icons-Coprorate" viewBox="0 0 32 32">
<path d="M30.263 18.864c-0.344-0.142-0.706-0.215-1.076-0.215-0.816 0-1.57 0.348-2.093 0.932l-2.35-0.973c0.247-0.827 0.38-1.702 0.38-2.607s-0.133-1.781-0.38-2.607l2.35-0.973c0.523 0.584 1.277 0.932 2.093 0.932 0.37 0 0.732-0.072 1.076-0.215 1.433-0.594 2.116-2.242 1.522-3.675-0.437-1.055-1.457-1.737-2.599-1.737-0.37 0-0.732 0.072-1.076 0.215-1.129 0.468-1.792 1.591-1.732 2.747l-2.353 0.975c-0.845-1.557-2.13-2.842-3.687-3.687l0.974-2.352c0.049 0.003 0.099 0.004 0.148 0.004 1.142 0 2.162-0.682 2.599-1.737 0.593-1.433-0.089-3.081-1.522-3.675-0.344-0.142-0.706-0.214-1.076-0.214-1.142 0-2.162 0.682-2.599 1.737-0.468 1.129-0.142 2.392 0.718 3.167l-0.974 2.351c-0.827-0.247-1.702-0.38-2.607-0.38s-1.781 0.133-2.607 0.38l-0.974-2.351c0.86-0.775 1.185-2.038 0.718-3.167-0.437-1.055-1.457-1.737-2.599-1.737-0.37 0-0.732 0.072-1.076 0.215-1.433 0.593-2.116 2.242-1.522 3.675 0.437 1.055 1.457 1.737 2.599 1.737 0.050 0 0.099-0.002 0.148-0.004l0.974 2.352c-1.557 0.845-2.842 2.13-3.687 3.687l-2.353-0.975c0.060-1.156-0.603-2.279-1.732-2.747-0.344-0.142-0.706-0.215-1.076-0.215-1.142 0-2.162 0.682-2.599 1.737-0.593 1.433 0.089 3.081 1.522 3.675 0.344 0.142 0.706 0.215 1.076 0.215 0.816 0 1.569-0.348 2.093-0.932l2.35 0.973c-0.247 0.827-0.38 1.702-0.38 2.607s0.133 1.781 0.38 2.607l-2.35 0.973c-0.523-0.583-1.277-0.932-2.093-0.932-0.37 0-0.732 0.072-1.076 0.215-1.433 0.593-2.116 2.242-1.522 3.675 0.437 1.055 1.457 1.737 2.599 1.737 0.37 0 0.732-0.072 1.076-0.215 1.129-0.468 1.792-1.591 1.732-2.747l2.353-0.975c0.845 1.557 2.13 2.842 3.687 3.687l-0.974 2.352c-0.049-0.003-0.098-0.004-0.148-0.004-1.142 0-2.162 0.682-2.599 1.737-0.593 1.433 0.089 3.081 1.522 3.675 0.344 0.142 0.706 0.215 1.076 0.215 1.142 0 2.162-0.682 2.599-1.737 0.468-1.129 0.142-2.392-0.718-3.167l0.974-2.351c0.827 0.247 1.702 0.38 2.607 0.38s1.781-0.133 2.607-0.38l0.974 2.351c-0.86 0.775-1.185 2.038-0.718 3.167 0.437 1.055 1.457 1.737 2.599 1.737 0.37 0 0.732-0.072 1.076-0.215 1.433-0.593 2.116-2.242 1.522-3.675-0.437-1.055-1.457-1.737-2.599-1.737-0.049 0-0.099 0.002-0.148 0.004l-0.974-2.352c1.557-0.845 2.842-2.13 3.687-3.687l2.353 0.975c-0.060 1.156 0.603 2.279 1.732 2.747 0.344 0.142 0.706 0.215 1.076 0.215 1.142 0 2.162-0.682 2.599-1.737 0.594-1.433-0.089-3.081-1.522-3.675zM16 23.25c-3.998 0-7.25-3.252-7.25-7.25s3.252-7.25 7.25-7.25c3.998 0 7.25 3.252 7.25 7.25s-3.252 7.25-7.25 7.25z"></path>
<path d="M30.263 18.864c-0.344-0.142-0.706-0.215-1.076-0.215-0.816 0-1.57 0.348-2.093 0.932l-2.35-0.973c0.247-0.827 0.38-1.702 0.38-2.607s-0.133-1.781-0.38-2.607l2.35-0.973c0.523 0.584 1.277 0.932 2.093 0.932 0.37 0 0.732-0.072 1.076-0.215 1.433-0.594 2.116-2.242 1.522-3.675-0.437-1.055-1.457-1.737-2.599-1.737-0.37 0-0.732 0.072-1.076 0.215-1.129 0.468-1.792 1.591-1.732 2.747l-2.353 0.975c-0.845-1.557-2.13-2.842-3.687-3.687l0.974-2.352c0.049 0.003 0.099 0.004 0.148 0.004 1.142 0 2.162-0.682 2.599-1.737 0.593-1.433-0.089-3.081-1.522-3.675-0.344-0.142-0.706-0.214-1.076-0.214-1.142 0-2.162 0.682-2.599 1.737-0.468 1.129-0.142 2.392 0.718 3.167l-0.974 2.351c-0.827-0.247-1.702-0.38-2.607-0.38s-1.781 0.133-2.607 0.38l-0.974-2.351c0.86-0.775 1.185-2.038 0.718-3.167-0.437-1.055-1.457-1.737-2.599-1.737-0.37 0-0.732 0.072-1.076 0.215-1.433 0.593-2.116 2.242-1.522 3.675 0.437 1.055 1.457 1.737 2.599 1.737 0.050 0 0.099-0.002 0.148-0.004l0.974 2.352c-1.557 0.845-2.842 2.13-3.687 3.687l-2.353-0.975c0.060-1.156-0.603-2.279-1.732-2.747-0.344-0.142-0.706-0.215-1.076-0.215-1.142 0-2.162 0.682-2.599 1.737-0.593 1.433 0.089 3.081 1.522 3.675 0.344 0.142 0.706 0.215 1.076 0.215 0.816 0 1.569-0.348 2.093-0.932l2.35 0.973c-0.247 0.827-0.38 1.702-0.38 2.607s0.133 1.781 0.38 2.607l-2.35 0.973c-0.523-0.583-1.277-0.932-2.093-0.932-0.37 0-0.732 0.072-1.076 0.215-1.433 0.593-2.116 2.242-1.522 3.675 0.437 1.055 1.457 1.737 2.599 1.737 0.37 0 0.732-0.072 1.076-0.215 1.129-0.468 1.792-1.591 1.732-2.747l2.353-0.975c0.845 1.557 2.13 2.842 3.687 3.687l-0.974 2.352c-0.049-0.003-0.098-0.004-0.148-0.004-1.142 0-2.162 0.682-2.599 1.737-0.593 1.433 0.089 3.081 1.522 3.675 0.344 0.142 0.706 0.215 1.076 0.215 1.142 0 2.162-0.682 2.599-1.737 0.468-1.129 0.142-2.392-0.718-3.167l0.974-2.351c0.827 0.247 1.702 0.38 2.607 0.38s1.781-0.133 2.607-0.38l0.974 2.351c-0.86 0.775-1.185 2.038-0.718 3.167 0.437 1.055 1.457 1.737 2.599 1.737 0.37 0 0.732-0.072 1.076-0.215 1.433-0.593 2.116-2.242 1.522-3.675-0.437-1.055-1.457-1.737-2.599-1.737-0.049 0-0.099 0.002-0.148 0.004l-0.974-2.352c1.557-0.845 2.842-2.13 3.687-3.687l2.353 0.975c-0.060 1.156 0.603 2.279 1.732 2.747 0.344 0.142 0.706 0.215 1.076 0.215 1.142 0 2.162-0.682 2.599-1.737 0.594-1.433-0.089-3.081-1.522-3.675zM16 23.25c-3.998 0-7.25-3.252-7.25-7.25s3.252-7.25 7.25-7.25c3.998 0 7.25 3.252 7.25 7.25s-3.252 7.25-7.25 7.25z"></path>
<path d="M16 10.625c-2.964 0-5.375 2.411-5.375 5.375s2.411 5.375 5.375 5.375c2.964 0 5.375-2.411 5.375-5.375s-2.411-5.375-5.375-5.375zM16.938 18.063h-1.875v-4.125h1.875v4.125z"></path>
<path d="M16 10.625c-2.964 0-5.375 2.411-5.375 5.375s2.411 5.375 5.375 5.375c2.964 0 5.375-2.411 5.375-5.375s-2.411-5.375-5.375-5.375zM16.938 18.063h-1.875v-4.125h1.875v4.125z"></path>
</symbol>

<symbol id="icons-Court" viewBox="0 0 32 32">
<path d="M20.176 10.194c0.366 0.366 0.959 0.367 1.325 0l1.304-1.304c0.366-0.366 0.364-0.959 0-1.325l-3.291-3.29c-0.365-0.366-0.958-0.366-1.324 0l-1.305 1.304c-0.365 0.366-0.365 0.959 0 1.324l3.291 3.292z"></path>
<path d="M12.383 18.133c0.366 0.364 0.959 0.364 1.324 0l1.304-1.305c0.366-0.365 0.366-0.959 0-1.325l-3.291-3.291c-0.366-0.365-0.959-0.366-1.325 0l-1.304 1.304c-0.366 0.366-0.365 0.959 0 1.325l3.292 3.292z"></path>
<path d="M27.324 18.446l-1.323-1.325c-0.367-0.365-0.959-0.365-1.324 0l-0.581 0.58-5.602-5.604 1.213-1.214-3.366-3.365-3.947 3.946 3.366 3.367 1.189-1.187 5.601 5.603-0.524 0.524c-0.366 0.364-0.367 0.958 0 1.324l1.323 1.324c0.367 0.367 0.959 0.367 1.325 0l2.649-2.648c0.366-0.366 0.366-0.959 0-1.325z"></path>
<path d="M17.538 22.471c0-0.599-0.486-1.087-1.087-1.087h-8.484c-0.6 0-1.087 0.487-1.087 1.087v1.764h-2.381v3.695h15.279v-3.695h-2.241v-1.764z"></path>
</symbol>

<symbol id="icons-Ecommerce" viewBox="0 0 32 32">
<path d="M11.867 14.063c0.552 0 1-0.448 1-1v-3.9c0-1.744 1.418-3.162 3.162-3.162s3.163 1.419 3.163 3.162v3.9c0 0.552 0.448 1 1 1s1-0.448 1-1v-3.9c0-2.846-2.316-5.162-5.162-5.162s-5.162 2.316-5.162 5.162v3.9c0 0.552 0.448 1 1 1z"></path>
<path d="M27.5 11.815h-5.308v1.247c0 1.103-0.897 2-2 2s-2-0.897-2-2v-1.247h-4.325v1.247c0 1.103-0.897 2-2 2s-2-0.897-2-2v-1.247h-5.367c-0.276 0-0.447 0.217-0.381 0.486l3.499 14.248c0.211 0.801 1.054 1.451 1.882 1.451h13c0.829 0 1.671-0.649 1.883-1.45l3.498-14.248c0.066-0.268-0.105-0.486-0.381-0.486z"></path>
<path d="M14.3 17.2c0-0.387 0.313-0.7 0.7-0.7s0.7 0.313 0.7 0.7v2.8c0-0.387 0.313-0.7 0.7-0.7s0.7 0.313 0.7 0.7v0.838c0.006-0.381 0.317-1.188 0.7-1.188 0.387 0 0.7 0.313 0.7 0.7 0 0 0.021 0.521 0.067 0.552 0.112-0.237 0.354-0.902 0.633-0.902 0.387 0 0.7 0.313 0.7 0.7v3.5c0 0.773-0.627 1.4-1.4 1.4h-2.34c-0.743 0-1.455-0.295-1.98-0.82l-1.105-1.105-1.575-0.705c0.003-0.668 0.526-0.87 1.050-0.87 0.451 0 0.857 0.070 1.75 0.525l0-5.425z"></path>
</symbol>

<symbol id="icons-Protection" viewBox="0 0 32 32">
<path d="M20.616 18.848c1.176 0 2.339 0.294 3.363 0.851 0.186 0.1 0.357 0.22 0.531 0.335 1.681-3.29 2.568-6.769 2.568-10.164 0-0.191 0-0.388-0.006-0.585-0.012-0.277-0.209-0.517-0.486-0.578-3.717-0.812-7.083-2.825-9.729-5.815l-0.394-0.449c-0.117-0.135-0.283-0.209-0.462-0.209-0.191-0.025-0.338 0.068-0.455 0.197l-0.603 0.665c-2.511 2.763-5.674 4.671-9.145 5.52l-0.4 0.098c-0.271 0.062-0.462 0.302-0.468 0.578-0.222 8.652 4.886 14.874 7.089 17.151 0.596 0.612 1.261 1.221 1.894 1.724-0.237-0.715-0.374-1.468-0.374-2.241 0-3.902 3.175-7.077 7.077-7.077z"></path>
<path d="M23.391 20.78c-0.849-0.462-1.809-0.702-2.775-0.702-3.225 0-5.846 2.622-5.846 5.846 0 1.089 0.295 2.154 0.862 3.065 1.077 1.742 2.935 2.782 4.985 2.782 3.218 0 5.846-2.622 5.846-5.846 0-2.154-1.175-4.123-3.071-5.145zM23.61 25.146l-4.572 3.558-1.561-2.442c-0.183-0.286-0.099-0.667 0.187-0.85s0.667-0.099 0.85 0.187l0.834 1.304 3.507-2.729c0.268-0.209 0.655-0.161 0.864 0.108s0.16 0.655-0.108 0.864z"></path>
</symbol>

<symbol id="icons-Support" viewBox="0 0 32 32">
<path d="M26.726 17.539v8.648c0 1.547-1.212 2.814-2.694 2.814h-16.047c-1.482 0-2.694-1.268-2.694-2.814v-8.648h8.333v3.755l2.384 1.567 2.384-1.567v-3.755h8.333z"></path>
<path d="M14.459 17.539v3.304l1.549 1.018 1.549-1.018v-3.304h-3.098z"></path>
<path d="M6.037 7.572h19.943c0.941 0 1.71 0.854 1.71 1.898v5.127c0 1.044-0.769 1.898-1.71 1.898h-19.943c-0.941 0-1.71-0.854-1.71-1.898v-5.127c0-1.044 0.769-1.898 1.71-1.898z"></path>
<path d="M11.856 2.978h8.305c0.772 0 1.403 0.631 1.403 1.403v2.189h-1.779v-1.293c0-0.349-0.285-0.635-0.634-0.635h-6.286c-0.349 0-0.634 0.286-0.634 0.635v1.293h-1.779v-2.189c0-0.772 0.631-1.403 1.403-1.403z"></path>
</symbol>

<symbol id="icons-Trust" viewBox="0 0 32 32">
<path d="M21.003 28h-9.5v3h9.5v-3z"></path>
<path d="M21.003 28h-9.5v3h9.5v-3z"></path>
<path d="M7.586 1.226l-6.718 6.718 1.768 1.768 6.718-6.718-1.768-1.768z"></path>
<path d="M7.586 1.226l-6.718 6.718 1.768 1.768 6.718-6.718-1.768-1.768z"></path>
<path d="M24.556 1.16l-1.768 1.768 6.718 6.717 1.768-1.768-6.718-6.718z"></path>
<path d="M24.556 1.16l-1.768 1.768 6.718 6.717 1.768-1.768-6.718-6.718z"></path>
<path d="M22.278 4.854l-1.346-0.057c-0.388-0.055-0.784-0.019-1.155 0.106s-0.709 0.333-0.986 0.61l-2.752 2.752-2.877-2.877c-0.25-0.244-0.561-0.415-0.901-0.495s-0.695-0.066-1.028 0.041c-0.314 0.095-0.647 0.104-0.965 0.024s-0.608-0.244-0.84-0.476l-0.427-0.427-5.303 5.303 0.864 0.864-0.057 1.346c-0.055 0.388-0.019 0.783 0.106 1.155s0.333 0.709 0.61 0.986l4.806 4.806c0.064-0.631 0.367-1.214 0.845-1.63l-1.498-1.497 0.354-0.354 1.564 1.564c0.222-0.126 0.462-0.217 0.711-0.27v-1.847l-0.861-0.861 0.354-0.354 0.508 0.508v-2.675c-0.006-0.442 0.151-0.871 0.441-1.205s0.692-0.55 1.13-0.607c0.165-0.016 0.332-0.008 0.495 0.022l-0.615-0.615 0.354-0.354 0.898 0.898c0.159-0.308 0.405-0.563 0.708-0.732s0.648-0.247 0.994-0.222c0.417 0.049 0.805 0.242 1.095 0.546s0.464 0.7 0.493 1.12c0.284-0.135 0.599-0.192 0.913-0.166 0.445 0.053 0.855 0.27 1.15 0.609s0.453 0.774 0.445 1.223v1.712c0.455 0.095 0.875 0.315 1.212 0.635s0.578 0.728 0.696 1.177l1.394-1.394 0.354 0.354-1.658 1.658c0 0.007 0.002 0.013 0.002 0.020v1.66c0.449-0.047 0.869-0.246 1.189-0.564l3.42-3.42c0.244-0.25 0.415-0.561 0.495-0.901s0.066-0.695-0.041-1.028c-0.095-0.314-0.104-0.647-0.024-0.965s0.244-0.608 0.476-0.84l0.427-0.427-5.303-5.303-0.864 0.864z"></path>
<path d="M22.278 4.854l-1.346-0.057c-0.388-0.055-0.784-0.019-1.155 0.106s-0.709 0.333-0.986 0.61l-2.752 2.752-2.877-2.877c-0.25-0.244-0.561-0.415-0.901-0.495s-0.695-0.066-1.028 0.041c-0.314 0.095-0.647 0.104-0.965 0.024s-0.608-0.244-0.84-0.476l-0.427-0.427-5.303 5.303 0.864 0.864-0.057 1.346c-0.055 0.388-0.019 0.783 0.106 1.155s0.333 0.709 0.61 0.986l4.806 4.806c0.064-0.631 0.367-1.214 0.845-1.63l-1.498-1.497 0.354-0.354 1.564 1.564c0.222-0.126 0.462-0.217 0.711-0.27v-1.847l-0.861-0.861 0.354-0.354 0.508 0.508v-2.675c-0.006-0.442 0.151-0.871 0.441-1.205s0.692-0.55 1.13-0.607c0.165-0.016 0.332-0.008 0.495 0.022l-0.615-0.615 0.354-0.354 0.898 0.898c0.159-0.308 0.405-0.563 0.708-0.732s0.648-0.247 0.994-0.222c0.417 0.049 0.805 0.242 1.095 0.546s0.464 0.7 0.493 1.12c0.284-0.135 0.599-0.192 0.913-0.166 0.445 0.053 0.855 0.27 1.15 0.609s0.453 0.774 0.445 1.223v1.712c0.455 0.095 0.875 0.315 1.212 0.635s0.578 0.728 0.696 1.177l1.394-1.394 0.354 0.354-1.658 1.658c0 0.007 0.002 0.013 0.002 0.020v1.66c0.449-0.047 0.869-0.246 1.189-0.564l3.42-3.42c0.244-0.25 0.415-0.561 0.495-0.901s0.066-0.695-0.041-1.028c-0.095-0.314-0.104-0.647-0.024-0.965s0.244-0.608 0.476-0.84l0.427-0.427-5.303-5.303-0.864 0.864z"></path>
<path d="M14.94 10.845c-0.038-0.325-0.202-0.622-0.457-0.826s-0.58-0.301-0.906-0.268c-0.316 0.044-0.604 0.202-0.811 0.444s-0.317 0.552-0.31 0.871v5.679c-0.53 0-1.039 0.211-1.414 0.586s-0.586 0.884-0.586 1.414v4.837c0.004 0.349 0.103 0.691 0.287 0.988s0.445 0.538 0.756 0.698c0.289 0.154 0.531 0.384 0.7 0.665s0.258 0.603 0.258 0.931v0.604h7.5v-1.222l0.992-0.911c0.313-0.236 0.567-0.541 0.742-0.892s0.266-0.737 0.266-1.129v-7.568c0-0.53-0.211-1.039-0.586-1.414s-0.884-0.586-1.414-0.586v-2.161c0.009-0.324-0.103-0.639-0.313-0.885s-0.504-0.406-0.825-0.449c-0.315-0.028-0.629 0.065-0.878 0.26s-0.415 0.477-0.463 0.79h0.229v7.722h-0.5v-7.722h0.25v-1.216c0.009-0.324-0.103-0.639-0.313-0.885s-0.504-0.406-0.825-0.449c-0.173-0.015-0.347 0.005-0.512 0.061s-0.316 0.145-0.444 0.262c-0.128 0.117-0.23 0.26-0.3 0.418s-0.106 0.331-0.106 0.504v0.851h0.25v7.722h-0.5v-7.722h0.234zM12.656 21.020h-0.5v-4h0.5v4zM19.706 13.899h0.5v5.222h-0.5v-5.222z"></path>
<path d="M14.94 10.845c-0.038-0.325-0.202-0.622-0.457-0.826s-0.58-0.301-0.906-0.268c-0.316 0.044-0.604 0.202-0.811 0.444s-0.317 0.552-0.31 0.871v5.679c-0.53 0-1.039 0.211-1.414 0.586s-0.586 0.884-0.586 1.414v4.837c0.004 0.349 0.103 0.691 0.287 0.988s0.445 0.538 0.756 0.698c0.289 0.154 0.531 0.384 0.7 0.665s0.258 0.603 0.258 0.931v0.604h7.5v-1.222l0.992-0.911c0.313-0.236 0.567-0.541 0.742-0.892s0.266-0.737 0.266-1.129v-7.568c0-0.53-0.211-1.039-0.586-1.414s-0.884-0.586-1.414-0.586v-2.161c0.009-0.324-0.103-0.639-0.313-0.885s-0.504-0.406-0.825-0.449c-0.315-0.028-0.629 0.065-0.878 0.26s-0.415 0.477-0.463 0.79h0.229v7.722h-0.5v-7.722h0.25v-1.216c0.009-0.324-0.103-0.639-0.313-0.885s-0.504-0.406-0.825-0.449c-0.173-0.015-0.347 0.005-0.512 0.061s-0.316 0.145-0.444 0.262c-0.128 0.117-0.23 0.26-0.3 0.418s-0.106 0.331-0.106 0.504v0.851h0.25v7.722h-0.5v-7.722h0.234zM12.656 21.020h-0.5v-4h0.5v4zM19.706 13.899h0.5v5.222h-0.5v-5.222z"></path>
</symbol>

<symbol id="icons-Ellipse" viewBox="0 0 34 32">
<path fill="#24a3ff" style="fill: var(--color1, #24a3ff)" opacity="0.2" d="M33 16c0 8.837-7.163 16-16 16s-16-7.163-16-16c0-8.837 7.163-16 16-16s16 7.163 16 16z"></path>
</symbol>

<symbol id="icons-Facebook-Footer" viewBox="0 0 33 32">
<path  d="M32.421 16.098c0-8.891-7.163-16.098-16-16.098s-16 7.207-16 16.098c0 8.035 5.851 14.695 13.5 15.902v-11.249h-4.062v-4.653h4.062v-3.547c0-4.035 2.389-6.263 6.043-6.263 1.751 0 3.582 0.314 3.582 0.314v3.962h-2.018c-1.988 0-2.607 1.241-2.607 2.514v3.020h4.437l-0.709 4.653h-3.728v11.249c7.649-1.208 13.5-7.867 13.5-15.902z"></path>
</symbol>

<symbol id="icons-Facebook-Header" viewBox="0 0 31 32">
<path  d="M30.72 16.094c0-8.535-6.877-15.454-15.36-15.454s-15.36 6.919-15.36 15.454c0 7.714 5.617 14.107 12.96 15.266v-10.799h-3.9v-4.467h3.9v-3.405c0-3.873 2.293-6.013 5.802-6.013 1.68 0 3.438 0.302 3.438 0.302v3.803h-1.937c-1.908 0-2.503 1.191-2.503 2.413v2.899h4.26l-0.681 4.467h-3.579v10.799c7.343-1.159 12.96-7.553 12.96-15.266z"></path>
</symbol>

<symbol id="icons-Scroll" viewBox="0 0 32 32">
<path opacity="0.5" stroke-linejoin="miter" stroke-linecap="butt" stroke-miterlimit="4" stroke-width="1.5238" d="M31.238 16c0 8.416-6.822 15.238-15.238 15.238s-15.238-6.822-15.238-15.238c0-8.416 6.822-15.238 15.238-15.238s15.238 6.822 15.238 15.238z"></path>
<path stroke-linejoin="miter" stroke-linecap="butt" stroke-miterlimit="4" stroke-width="1.5238" d="M9.143 13.714l6.857 6.857 6.857-6.857"></path>
</symbol>

<symbol id="icons-Close" viewBox="0 0 32 32">
<path stroke-linejoin="miter" stroke-linecap="butt" stroke-miterlimit="4" stroke-width="2" d="M7 7l18 18"></path>
<path stroke-linejoin="miter" stroke-linecap="butt" stroke-miterlimit="4" stroke-width="2" d="M25 7l-18 18"></path>
</symbol>

<symbol id="icons-Logo-about" viewBox="0 0 68 32">
<path fill="#f0145a" style="fill: var(--color1, #f0145a)" d="M2.6 0h-2.6v18.78h2.6v-6.967c0-1.179 0.293-2.108 0.88-2.763s1.389-0.995 2.384-0.995c0.854 0 1.568 0.314 2.141 0.917 0.574 0.616 0.867 1.388 0.867 2.318v7.504h2.613v-7.504c0-1.729-0.472-3.091-1.415-4.112s-2.18-1.532-3.684-1.532c-0.433 0-0.867 0.052-1.287 0.17-0.433 0.118-0.778 0.249-1.058 0.393s-0.548 0.301-0.79 0.485c-0.242 0.183-0.408 0.314-0.484 0.393s-0.14 0.131-0.166 0.17v-7.255z"></path>
<path fill="#323264" style="fill: var(--color2, #323264)" d="M17.297 0h-2.681v18.764h2.681v-18.764z"></path>
<path fill="#323264" style="fill: var(--color2, #323264)" d="M33.108 13.269l0.134-1.34c0-1.796-0.59-3.297-1.796-4.503s-2.707-1.796-4.503-1.796-3.351 0.643-4.637 1.93c-1.287 1.287-1.93 2.815-1.93 4.637 0 1.876 0.67 3.485 1.984 4.825s2.895 2.010 4.718 2.010c0.697 0 1.34-0.107 1.984-0.295 0.643-0.214 1.179-0.429 1.555-0.643 0.402-0.241 0.804-0.509 1.153-0.804s0.59-0.509 0.697-0.643c0.107-0.134 0.188-0.214 0.241-0.295l-1.742-1.742-0.402 0.509c-0.268 0.322-0.724 0.643-1.367 0.992-0.67 0.349-1.367 0.509-2.118 0.509-1.045 0-1.93-0.322-2.681-0.992s-1.206-1.447-1.34-2.359h10.052zM26.942 7.907c0.992 0 1.796 0.295 2.466 0.858 0.643 0.59 1.045 1.313 1.206 2.225h-7.452c0.241-0.911 0.67-1.635 1.34-2.225 0.643-0.563 1.474-0.858 2.439-0.858z"></path>
<path fill="#323264" style="fill: var(--color2, #323264)" d="M45.609 17.986c0 1.179-0.349 2.144-1.072 2.895-0.697 0.724-1.582 1.099-2.681 1.099-0.483 0-0.965-0.080-1.421-0.214s-0.804-0.295-1.099-0.482c-0.295-0.188-0.563-0.375-0.831-0.617-0.241-0.241-0.402-0.402-0.483-0.483s-0.134-0.161-0.188-0.214l-1.742 1.742 0.214 0.268c0.134 0.188 0.375 0.429 0.697 0.697 0.322 0.241 0.697 0.509 1.126 0.777 0.429 0.241 0.965 0.456 1.635 0.643s1.367 0.295 2.091 0.295c1.823 0 3.324-0.617 4.584-1.85 1.233-1.26 1.85-2.761 1.85-4.584v-12.063h-2.681v1.34l-0.456-0.402c-0.295-0.268-0.751-0.536-1.394-0.804s-1.34-0.402-2.037-0.402c-1.635 0-3.029 0.617-4.235 1.876s-1.796 2.761-1.796 4.557 0.59 3.297 1.796 4.557c1.206 1.26 2.6 1.876 4.235 1.876 0.456 0 0.885-0.054 1.34-0.161 0.429-0.134 0.777-0.268 1.072-0.402s0.563-0.295 0.804-0.483 0.429-0.322 0.483-0.375l0.188-0.188v1.099zM38.372 12.062c0-1.126 0.349-2.064 1.072-2.841s1.582-1.179 2.547-1.179 1.823 0.402 2.547 1.179c0.697 0.777 1.072 1.716 1.072 2.841s-0.375 2.064-1.072 2.841c-0.724 0.777-1.582 1.18-2.547 1.18s-1.823-0.402-2.547-1.18c-0.724-0.777-1.072-1.716-1.072-2.841z"></path>
<path fill="#323264" style="fill: var(--color2, #323264)" d="M62.281 18.764v-8.31c0-1.367-0.509-2.52-1.501-3.431-0.992-0.938-2.279-1.394-3.86-1.394-0.616 0-1.233 0.080-1.822 0.241-0.59 0.188-1.072 0.375-1.421 0.59s-0.697 0.456-1.018 0.751c-0.322 0.268-0.509 0.456-0.617 0.563-0.080 0.107-0.161 0.188-0.214 0.268l1.742 1.742 0.348-0.456c0.215-0.295 0.59-0.563 1.153-0.858s1.179-0.429 1.849-0.429c0.777 0 1.421 0.241 1.93 0.697s0.751 1.045 0.751 1.716l-4.691 0.804c-1.153 0.188-2.091 0.643-2.734 1.367-0.67 0.724-1.019 1.608-1.019 2.654 0 0.992 0.429 1.85 1.287 2.6 0.884 0.777 1.957 1.153 3.27 1.153 0.456 0 0.884-0.054 1.314-0.188 0.455-0.107 0.804-0.241 1.099-0.375s0.563-0.295 0.804-0.482 0.402-0.322 0.509-0.375c0.080-0.080 0.134-0.161 0.161-0.188v1.34h2.681zM56.116 16.619c-0.697 0-1.26-0.161-1.662-0.483-0.429-0.322-0.616-0.697-0.616-1.126 0-0.456 0.134-0.858 0.429-1.153s0.697-0.509 1.179-0.59l4.155-0.67v0.268c0 1.206-0.295 2.118-0.911 2.788-0.616 0.643-1.475 0.965-2.574 0.965z"></path>
<path fill="#323264" style="fill: var(--color2, #323264)" d="M68.197 0h-2.681v18.764h2.681v-18.764z"></path>
<path fill="#323264" style="fill: var(--color2, #323264)" d="M0 27.865h0.839v2.941h1.818v0.684h-2.656v-3.625z"></path>
<path fill="#323264" style="fill: var(--color2, #323264)" d="M8.132 30.714h-1.683l-0.321 0.777h-0.86l1.616-3.625h0.829l1.621 3.625h-0.88l-0.321-0.777zM7.868 30.077l-0.575-1.388-0.575 1.388h1.15z"></path>
<path fill="#323264" style="fill: var(--color2, #323264)" d="M17.58 27.865l-1.186 3.625h-0.901l-0.797-2.454-0.823 2.454h-0.896l-1.191-3.625h0.87l0.818 2.548 0.854-2.548h0.777l0.829 2.568 0.844-2.568h0.803z"></path>
<path fill="#323264" style="fill: var(--color2, #323264)" d="M26.504 31.552c-0.369 0-0.704-0.079-1.005-0.238-0.297-0.162-0.532-0.385-0.704-0.668-0.169-0.287-0.254-0.609-0.254-0.968s0.085-0.68 0.254-0.963c0.173-0.287 0.407-0.509 0.704-0.668 0.3-0.162 0.637-0.243 1.010-0.243 0.314 0 0.597 0.055 0.849 0.166 0.255 0.11 0.469 0.269 0.642 0.476l-0.539 0.497c-0.245-0.283-0.549-0.425-0.911-0.425-0.224 0-0.425 0.050-0.601 0.15-0.176 0.097-0.314 0.233-0.414 0.409-0.097 0.176-0.145 0.376-0.145 0.601s0.048 0.425 0.145 0.601c0.1 0.176 0.238 0.314 0.414 0.414 0.176 0.097 0.376 0.145 0.601 0.145 0.363 0 0.666-0.143 0.911-0.43l0.539 0.497c-0.173 0.211-0.387 0.371-0.642 0.482s-0.54 0.166-0.854 0.166z"></path>
<path fill="#323264" style="fill: var(--color2, #323264)" d="M32.836 31.552c-0.376 0-0.716-0.081-1.020-0.243-0.3-0.162-0.537-0.385-0.709-0.668-0.169-0.287-0.254-0.608-0.254-0.963s0.085-0.675 0.254-0.958c0.173-0.287 0.409-0.511 0.709-0.673 0.304-0.162 0.644-0.243 1.020-0.243s0.715 0.081 1.015 0.243c0.3 0.162 0.537 0.387 0.709 0.673 0.173 0.283 0.259 0.602 0.259 0.958s-0.086 0.677-0.259 0.963c-0.173 0.283-0.409 0.506-0.709 0.668s-0.639 0.243-1.015 0.243zM32.836 30.838c0.214 0 0.407-0.048 0.58-0.145 0.173-0.1 0.307-0.238 0.404-0.414 0.1-0.176 0.15-0.376 0.15-0.601s-0.050-0.425-0.15-0.601c-0.097-0.176-0.231-0.312-0.404-0.409-0.173-0.1-0.366-0.15-0.58-0.15s-0.407 0.050-0.58 0.15c-0.173 0.097-0.309 0.233-0.409 0.409-0.097 0.176-0.145 0.376-0.145 0.601s0.048 0.425 0.145 0.601c0.1 0.176 0.237 0.314 0.409 0.414 0.173 0.097 0.366 0.145 0.58 0.145z"></path>
<path fill="#323264" style="fill: var(--color2, #323264)" d="M41.337 31.49l-0.005-2.175-1.067 1.792h-0.378l-1.062-1.745v2.128h-0.787v-3.625h0.694l1.357 2.253 1.336-2.253h0.689l0.010 3.625h-0.787z"></path>
<path fill="#323264" style="fill: var(--color2, #323264)" d="M47.143 27.865c0.321 0 0.599 0.053 0.834 0.161 0.238 0.107 0.421 0.259 0.549 0.456s0.192 0.43 0.192 0.699c0 0.266-0.064 0.499-0.192 0.699-0.128 0.197-0.311 0.349-0.549 0.456-0.235 0.104-0.513 0.155-0.834 0.155h-0.73v0.999h-0.839v-3.625h1.569zM47.096 29.807c0.252 0 0.444-0.053 0.575-0.161 0.131-0.11 0.197-0.266 0.197-0.466 0-0.204-0.066-0.359-0.197-0.466-0.131-0.11-0.323-0.166-0.575-0.166h-0.684v1.258h0.684z"></path>
<path fill="#323264" style="fill: var(--color2, #323264)" d="M54.11 30.714h-1.683l-0.321 0.777h-0.86l1.616-3.625h0.828l1.621 3.625h-0.88l-0.321-0.777zM53.846 30.077l-0.574-1.388-0.575 1.388h1.149z"></path>
<path fill="#323264" style="fill: var(--color2, #323264)" d="M61.602 27.865v3.625h-0.689l-1.807-2.201v2.201h-0.829v-3.625h0.694l1.802 2.201v-2.201h0.829z"></path>
<path fill="#323264" style="fill: var(--color2, #323264)" d="M66.788 30.206v1.284h-0.839v-1.295l-1.403-2.33h0.891l0.968 1.61 0.968-1.61h0.824l-1.409 2.341z"></path>
</symbol>

<symbol id="icons-Experience" viewBox="0 0 32 32">
<path fill="#f0145a" style="fill: var(--color1, #f0145a)" d="M27.114 6.305c-0.169-0.168-0.368-0.253-0.598-0.253-0.114 0-0.356 0.094-0.723 0.279s-0.758 0.393-1.168 0.624c-0.412 0.229-0.898 0.438-1.46 0.623s-1.081 0.279-1.56 0.279c-0.442 0-0.832-0.084-1.168-0.253-1.114-0.522-2.084-0.912-2.907-1.168s-1.708-0.386-2.655-0.386c-1.636 0-3.499 0.532-5.588 1.594-0.431 0.215-0.74 0.381-0.94 0.503l-0.198-1.455c0.448-0.389 0.738-0.957 0.738-1.598 0-1.173-0.951-2.124-2.124-2.124s-2.124 0.951-2.124 2.124c0 0.766 0.409 1.431 1.016 1.805l2.87 21.045c0.085 0.627 0.621 1.081 1.237 1.081 0.056 0 0.113-0.003 0.171-0.011 0.684-0.094 1.163-0.724 1.069-1.407l-1.153-8.459c2.093-1.038 3.903-1.562 5.426-1.562 0.646 0 1.277 0.096 1.892 0.291s1.127 0.407 1.534 0.637c0.407 0.23 0.887 0.443 1.44 0.637 0.553 0.195 1.1 0.293 1.64 0.293 1.363 0 2.995-0.514 4.898-1.54 0.239-0.124 0.414-0.246 0.524-0.366s0.166-0.29 0.166-0.511v-10.129c0-0.229-0.084-0.429-0.251-0.598z"></path>
</symbol>

<symbol id="icons-Group" viewBox="0 0 38 32">
<path fill="#f0145a" style="fill: var(--color1, #f0145a)" d="M20.701 19.392v-0.812c0-0.99-0.802-1.792-1.791-1.792s-1.792 0.802-1.792 1.792v0.812c0 0.99 0.802 1.792 1.792 1.792 0.988 0 1.791-0.802 1.791-1.792z"></path>
<path fill="#f0145a" style="fill: var(--color1, #f0145a)" d="M21.93 20.383c-0.397 1.3-1.593 2.254-3.020 2.254s-2.624-0.954-3.021-2.254h-12.341c-0.779 0-1.515-0.181-2.175-0.495v8.194c0 1.6 1.309 2.909 2.909 2.909h29.255c1.6 0 2.909-1.309 2.909-2.909v-8.193c-0.661 0.314-1.396 0.495-2.175 0.495l-12.34-0.001z"></path>
<path fill="#f0145a" style="fill: var(--color1, #f0145a)" d="M34.149 5.669h-6.983c-0.422-2.637-2.706-4.66-5.46-4.66h-5.595c-2.754 0-5.038 2.023-5.46 4.66h-6.982c-1.667 0-3.031 1.309-3.031 2.909v6.715c0 1.607 1.303 2.909 2.909 2.909h12.204c0.041-0.837 0.401-1.589 0.969-2.133 0.017-0.017 0.038-0.030 0.056-0.046 0.126-0.116 0.257-0.225 0.4-0.319 0.051-0.034 0.109-0.057 0.162-0.088 0.118-0.068 0.234-0.138 0.361-0.191 0.1-0.041 0.207-0.065 0.312-0.097 0.090-0.027 0.176-0.063 0.27-0.081 0.203-0.041 0.413-0.063 0.628-0.063s0.425 0.023 0.628 0.063c0.093 0.019 0.179 0.055 0.269 0.081 0.105 0.031 0.212 0.055 0.312 0.097 0.127 0.052 0.242 0.122 0.36 0.19 0.054 0.031 0.112 0.055 0.164 0.089 0.143 0.094 0.273 0.203 0.399 0.319 0.018 0.017 0.039 0.030 0.057 0.047 0.569 0.544 0.927 1.296 0.969 2.133h12.204c1.607 0 2.909-1.303 2.909-2.909v-6.715c0.001-1.601-1.363-2.911-3.030-2.911zM13.452 5.669c0.371-1.121 1.416-1.937 2.66-1.937h5.595c1.244 0 2.289 0.817 2.66 1.937h-10.914z"></path>
</symbol>

<symbol id="icons-Probono" viewBox="0 0 32 32">
<path fill="#f0145a" style="fill: var(--color1, #f0145a)" d="M16.097 3.553c-6.845 0-12.413 5.569-12.413 12.413s5.569 12.414 12.413 12.414 12.413-5.569 12.413-12.414c0-6.845-5.568-12.413-12.413-12.413zM22.956 15.059v0.001l-3.593 2.6 1.384 4.23c0.022 0.066 0.034 0.137 0.034 0.209 0 0.369-0.299 0.669-0.669 0.669-0.147 0-0.282-0.047-0.392-0.127l-3.622-2.619-3.622 2.619c-0.11 0.079-0.245 0.127-0.392 0.127-0.37 0-0.669-0.299-0.669-0.669 0-0.073 0.012-0.142 0.034-0.209l1.385-4.23-3.594-2.601c-0.168-0.121-0.277-0.319-0.277-0.541 0-0.37 0.299-0.668 0.669-0.668h4.449l1.377-4.211c0.084-0.274 0.338-0.473 0.64-0.473s0.556 0.199 0.64 0.473l1.378 4.211h4.448c0.369 0 0.669 0.299 0.669 0.668-0 0.223-0.11 0.421-0.277 0.541z"></path>
</symbol>

<symbol id="icons-Vector" viewBox="0 0 19 32">
<path fill="none"  stroke-linejoin="miter" stroke-linecap="butt" stroke-miterlimit="4" stroke-width="3.7647" d="M2.824 29.176l13.176-13.176-13.176-13.176"></path>
</symbol>
</defs>
</svg>
